# xmcd
#
# Track frame offsets:
#	150
#	9266
#	20070
#	32382
#	43689
#	55004
#	62717
#	73184
#	82721
#	95680
#	108064
#	118321
#	136027
#	147133
#	156329
#	171522
#	187656
#	202377
#
# Disc length: 2864 seconds
#
# Revision: 0
# Processed by: cddbd v1.5.2PL0 Copyright (c) Steve Scherf et al.
# Submitted via: audiograbber 1.83.01
#
DISCID=f10b2e12
DTITLE=diversen - rawhide
DYEAR=1900
DGENRE=Country
TTITLE0=rawhdie - frankie lane
TTITLE1=wild side of life /freddy fender
TTITLE2=okie from muskogee /merle haggard
TTITLE3=sally was a good old girl /waylon jennings
TTITLE4=hugry for love  - patsy cline
TTITLE5=do-wacka-do /roger miller
TTITLE6=runnig bare /jim nesbitt
TTITLE7=are you from dixie /del wood
TTITLE8=i take it on home /charlie rich
TTITLE9=six white horses - tommy cash
TTITLE10=i'm gonnabe a country girl again /billy jo spears
TTITLE11=leavin' dirty tracks - buck owens
TTITLE12=give me 40 acres - the willes brothers
TTITLE13=let's think about living /bob luman
TTITLE14=just dropped in - kenny rogers
TTITLE15=the devil went down to georgia /lynn anderson
TTITLE16=rhinstone cowboy /glen cambell
TTITLE17=folsom prison blues /johnny cash
EXTD=
EXTT0=
EXTT1=
EXTT2=
EXTT3=
EXTT4=
EXTT5=
EXTT6=
EXTT7=
EXTT8=
EXTT9=
EXTT10=
EXTT11=
EXTT12=
EXTT13=
EXTT14=
EXTT15=
EXTT16=
EXTT17=
PLAYORDER=
